<?xml version="1.0" encoding="iso-8859-1"?>
<!-- Generator: Adobe Illustrator 16.0.0, SVG Export Plug-In . SVG Version: 6.00 Build 0)  -->
<!DOCTYPE svg PUBLIC "-//W3C//DTD SVG 1.1//EN" "http://www.w3.org/Graphics/SVG/1.1/DTD/svg11.dtd">
<svg version="1.1" id="Capa_1" xmlns="http://www.w3.org/2000/svg" xmlns:xlink="http://www.w3.org/1999/xlink" x="0px" y="0px"
	 width="114.01px" height="114.009px" viewBox="0 0 114.01 114.009" style="enable-background:new 0 0 114.01 114.009;"
	 xml:space="preserve">
<g>
	<g>
		<path d="M99.223,80.536c-4.935-6.69-11.389-11.68-18.191-16.115c-5.523-3.59-11.813-2.826-17.666-0.482
			c-3.593,1.438-7.139,1.608-10.588,0.565c-4.601-1.39-9.226-1.541-13.921-1.555c-2.012-0.006-3.684,0.695-4.881,2.276
			c-0.669,0.883,4.812,4.552,9.514,4.552c-0.87,1.741-16.071-1.944-18.097-1.794l-11.497-1.472c-4.086-0.331-4.08-1.875-8.099,0.395
			c-0.137,0.082-0.337,0.082-0.501,0.071c-2.233-0.13-3.498,0.582-4.738,2.061c-0.719,0.855-0.662,1.902-0.281,2.901
			c0.404,1.041,1.431,0.771,2.271,1.105c5.142,2.033,6.803,3.029,13.772,4.75c4.962,1.226,9.794,2.725,14.743,3.84
			c2.046,0.465,4.129,0.814,5.975,1.852c3.922,2.207,8.092,2.878,12.573,2.673c5.085-0.229,10.187-0.027,15.281-0.056
			c8.949-0.041,15.742,3.539,20.345,11.417l28.773-0.059C107.73,90.115,104.966,88.334,99.223,80.536z"/>
		<path d="M52.372,53.436c6.952,0,12.588-5.634,12.588-12.59c0-6.955-12.588-24.355-12.588-24.355s-12.595,17.4-12.595,24.355
			C39.777,47.801,45.42,53.436,52.372,53.436z M44.213,35.555c0,0-0.308,6.136,6.312,14.245
			C50.526,49.803,40.271,45.199,44.213,35.555z"/>
	</g>
</g>
<g>
</g>
<g>
</g>
<g>
</g>
<g>
</g>
<g>
</g>
<g>
</g>
<g>
</g>
<g>
</g>
<g>
</g>
<g>
</g>
<g>
</g>
<g>
</g>
<g>
</g>
<g>
</g>
<g>
</g>
</svg>
